<svg width="48" height="50" viewBox="0 0 48 50" fill="none" xmlns="http://www.w3.org/2000/svg">
<rect x="0.0950928" y="0.479126" width="47.6027" height="48.8923" rx="8" fill="#3C72FF"/>
<mask id="path-2-outside-1_2521_170" maskUnits="userSpaceOnUse" x="6.09509" y="7.47913" width="35" height="35" fill="black">
<rect fill="white" x="6.09509" y="7.47913" width="35" height="35"/>
<path fill-rule="evenodd" clip-rule="evenodd" d="M16.1746 13.9933L12.9871 8.47913H8.23146L13.507 17.2064L8.09509 25.9337H12.9019L16.1746 20.3598H16.311L19.5837 25.9337H23.8451L29.1211 35.5418V41.3714H33.3143V35.5418L39.6978 23.9168H34.9847L31.2944 31.2208H31.141L27.4506 23.9168H23.1681L18.9871 17.2064L24.2542 8.47913H19.5326L16.311 13.9933H16.1746Z"/>
</mask>
<path fill-rule="evenodd" clip-rule="evenodd" d="M16.1746 13.9933L12.9871 8.47913H8.23146L13.507 17.2064L8.09509 25.9337H12.9019L16.1746 20.3598H16.311L19.5837 25.9337H23.8451L29.1211 35.5418V41.3714H33.3143V35.5418L39.6978 23.9168H34.9847L31.2944 31.2208H31.141L27.4506 23.9168H23.1681L18.9871 17.2064L24.2542 8.47913H19.5326L16.311 13.9933H16.1746Z" fill="white"/>
<path d="M12.9871 8.47913L13.6797 8.07876L13.4487 7.67913H12.9871V8.47913ZM16.1746 13.9933L15.482 14.3937L15.713 14.7933H16.1746V13.9933ZM8.23146 8.47913V7.67913H6.81306L7.54682 8.89298L8.23146 8.47913ZM13.507 17.2064L14.1869 17.628L14.4451 17.2117L14.1917 16.7925L13.507 17.2064ZM8.09509 25.9337L7.41521 25.5121L6.65767 26.7337H8.09509V25.9337ZM12.9019 25.9337V26.7337H13.3599L13.5918 26.3387L12.9019 25.9337ZM16.1746 20.3598V19.5598H15.7167L15.4848 19.9547L16.1746 20.3598ZM16.311 20.3598L17.0009 19.9547L16.769 19.5598H16.311V20.3598ZM19.5837 25.9337L18.8939 26.3387L19.1257 26.7337H19.5837V25.9337ZM23.8451 25.9337L24.5463 25.5486L24.3184 25.1337H23.8451V25.9337ZM29.1211 35.5418H29.9211V35.3366L29.8223 35.1568L29.1211 35.5418ZM29.1211 41.3714H28.3211V42.1714H29.1211V41.3714ZM33.3143 41.3714V42.1714H34.1143V41.3714H33.3143ZM33.3143 35.5418L32.6131 35.1568L32.5143 35.3366V35.5418H33.3143ZM39.6978 23.9168L40.399 24.3019L41.0498 23.1168H39.6978V23.9168ZM34.9847 23.9168V23.1168H34.4926L34.2707 23.5561L34.9847 23.9168ZM31.2944 31.2208V32.0208H31.7865L32.0084 31.5816L31.2944 31.2208ZM31.141 31.2208L30.427 31.5816L30.6489 32.0208H31.141V31.2208ZM27.4506 23.9168L28.1647 23.5561L27.9428 23.1168H27.4506V23.9168ZM23.1681 23.9168L22.4891 24.3399L22.7239 24.7168H23.1681V23.9168ZM18.9871 17.2064L18.3022 16.793L18.0487 17.2131L18.3081 17.6294L18.9871 17.2064ZM24.2542 8.47913L24.9391 8.89249L25.6714 7.67913H24.2542V8.47913ZM19.5326 8.47913V7.67913H19.0735L18.8418 8.07556L19.5326 8.47913ZM16.311 13.9933V14.7933H16.7701L17.0018 14.3969L16.311 13.9933ZM12.2945 8.87949L15.482 14.3937L16.8672 13.593L13.6797 8.07876L12.2945 8.87949ZM8.23146 9.27913H12.9871V7.67913H8.23146V9.27913ZM14.1917 16.7925L8.91609 8.06527L7.54682 8.89298L12.8224 17.6203L14.1917 16.7925ZM8.77498 26.3553L14.1869 17.628L12.8271 16.7848L7.41521 25.5121L8.77498 26.3553ZM12.9019 25.1337H8.09509V26.7337H12.9019V25.1337ZM15.4848 19.9547L12.212 25.5286L13.5918 26.3387L16.8645 20.7649L15.4848 19.9547ZM16.311 19.5598H16.1746V21.1598H16.311V19.5598ZM20.2736 25.5286L17.0009 19.9547L15.6211 20.7649L18.8939 26.3387L20.2736 25.5286ZM23.8451 25.1337H19.5837V26.7337H23.8451V25.1337ZM29.8223 35.1568L24.5463 25.5486L23.1438 26.3187L28.4199 35.9269L29.8223 35.1568ZM29.9211 41.3714V35.5418H28.3211V41.3714H29.9211ZM33.3143 40.5714H29.1211V42.1714H33.3143V40.5714ZM32.5143 35.5418V41.3714H34.1143V35.5418H32.5143ZM38.9966 23.5318L32.6131 35.1568L34.0155 35.9269L40.399 24.3019L38.9966 23.5318ZM34.9847 24.7168H39.6978V23.1168H34.9847V24.7168ZM32.0084 31.5816L35.6988 24.2776L34.2707 23.5561L30.5804 30.8601L32.0084 31.5816ZM31.141 32.0208H31.2944V30.4208H31.141V32.0208ZM26.7366 24.2776L30.427 31.5816L31.855 30.8601L28.1647 23.5561L26.7366 24.2776ZM23.1681 24.7168H27.4506V23.1168H23.1681V24.7168ZM18.3081 17.6294L22.4891 24.3399L23.8471 23.4938L19.6661 16.7834L18.3081 17.6294ZM23.5693 8.06576L18.3022 16.793L19.6721 17.6198L24.9391 8.89249L23.5693 8.06576ZM19.5326 9.27913H24.2542V7.67913H19.5326V9.27913ZM17.0018 14.3969L20.2233 8.88269L18.8418 8.07556L15.6202 13.5898L17.0018 14.3969ZM16.1746 14.7933H16.311V13.1933H16.1746V14.7933Z" fill="#3C72FF" mask="url(#path-2-outside-1_2521_170)"/>
</svg>
